<svg xmlns="http://www.w3.org/2000/svg" viewBox="0 0 32 32">
  <rect width="32" height="32" rx="6" fill="#000"/>
  <g transform="translate(9, 4.5) scale(0.75)">
    <path d="M2.69 17.18c0.97,-0.14 4.71,-1.44 5.83,-1.66l0 0.83c-0.3,0.15 -0.95,0.28 -1.32,0.39 -0.44,0.13 -0.88,0.26 -1.32,0.39 -0.43,0.13 -0.9,0.25 -1.33,0.38 -0.56,0.17 -1,0.09 -0.81,0.73 0.42,-0.01 1.91,-0.52 2.39,-0.66 0.59,-0.18 1.83,-0.62 2.37,-0.68l-0.02 0.9 -4.7 1.34c0.02,0.16 0.17,0.34 0.24,0.48 0.41,-0.02 1.75,-0.49 2.22,-0.62 0.67,-0.19 1.61,-0.55 2.26,-0.65 -0.02,1.15 0.33,0.83 -1.99,1.48l-1.99 0.56 0.25 0.49c0.47,-0.05 1.9,-0.65 2.22,-0.58l-0 0.57c-0.03,0.01 -0.04,0.01 -0.05,0.02 -0.05,0.15 -1.47,0.32 -1.73,0.59 0.05,0.17 0.09,0.2 0.2,0.29 0.36,-0.05 1.3,-0.41 1.58,-0.36l-0 0.62c-0.32,0.18 -0.86,0.2 -1.17,0.36 0.03,0.18 0.12,0.27 0.2,0.39 0.32,-0.06 0.58,-0.22 0.95,-0.23l0.03 0.69 -0.54 0.15c0.04,0.16 1.12,1.69 1.31,1.82 0.19,-0.11 0.35,-0.45 0.47,-0.64 0.32,-0.48 1.19,-1.65 1.33,-2.08 -0.61,0.03 -1.57,0.48 -2.21,0.6 -0.01,-0.83 -0.15,-0.65 0.76,-0.9l1.68 -0.48c0.4,-0.1 0.44,-0.2 0.57,-0.51 -0.44,-0.02 -2.53,0.81 -2.99,0.75 -0.03,-0.24 -0.01,-1.62 0.06,-1.74 0.09,-0.13 0.03,-0.1 0.26,-0.16 0.11,-0.03 0.2,-0.05 0.32,-0.08l1.87 -0.53c0.28,-0.08 1.66,-0.42 1.8,-0.61 0.07,-0.1 0.23,-0.43 0.27,-0.55l-2.99 0.83 0.01 -0.93c0.61,-0.1 1.41,-0.39 2.01,-0.55 0.33,-0.09 0.64,-0.18 0.98,-0.28 0.44,-0.12 0.64,-0.1 0.69,-0.62 -0.79,0.16 -3.15,0.95 -3.66,0.99l-0.02 -1.79c0.01,-0.08 0.04,-0.45 0.1,-0.51 0.09,-0.1 3.72,-1.11 4.34,-1.28 0.52,-0.14 0.43,0.03 0.83,-1.07 0.31,-0.85 0.64,-2 0.81,-2.95 0.11,-0.57 0.51,-3.06 0.26,-3.48 -0.04,-0.03 -0.68,-0.04 -0.76,0.48 -0.19,1.23 -0.05,1.81 -0.76,3.14 -2.02,3.79 -7.24,4.58 -10.28,1.31 -2.83,-3.04 -2.02,-8.22 2.32,-10.07 2.48,-1.06 4.28,-0.09 4.55,-0.22 0.61,-0.67 -0.05,-0.8 -0.6,-0.95 -3.65,-1.03 -7.78,0.58 -9.23,4.17 -0.89,2.22 -0.57,4.54 -0.01,6.89 0.25,1.06 0.58,2.04 0.94,3.01 0.17,0.47 0.39,0.97 0.58,1.43 0.2,0.46 0.45,0.94 0.63,1.37z" fill="#F5A623"/>
  </g>
</svg>
