<svg xmlns="http://www.w3.org/2000/svg" xml:space="preserve" width="100%" height="100%" version="1.1" style="shape-rendering:geometricPrecision; text-rendering:geometricPrecision; image-rendering:optimizeQuality; fill-rule:evenodd; clip-rule:evenodd" viewBox="0 0 15.39 25.2">
  <g id="Layer_x0020_1">
    <path class="fil0" d="M2.69 17.18c0.97,-0.14 4.71,-1.44 5.83,-1.66l0 0.83c-0.3,0.15 -0.95,0.28 -1.32,0.39 -0.44,0.13 -0.88,0.26 -1.32,0.39 -0.43,0.13 -0.9,0.25 -1.33,0.38 -0.56,0.17 -1,0.09 -0.81,0.73 0.42,-0.01 1.91,-0.52 2.39,-0.66 0.59,-0.18 1.83,-0.62 2.37,-0.68l-0.02 0.9 -4.7 1.34c0.02,0.16 0.17,0.34 0.24,0.48 0.41,-0.02 1.75,-0.49 2.22,-0.62 0.67,-0.19 1.61,-0.55 2.26,-0.65 -0.02,1.15 0.33,0.83 -1.99,1.48l-1.99 0.56 0.25 0.49c0.47,-0.05 1.9,-0.65 2.22,-0.58l-0 0.57c-0.03,0.01 -0.04,0.01 -0.05,0.02 -0.05,0.15 -1.47,0.32 -1.73,0.59 0.05,0.17 0.09,0.2 0.2,0.29 0.36,-0.05 1.3,-0.41 1.58,-0.36l-0 0.62c-0.32,0.18 -0.86,0.2 -1.17,0.36 0.03,0.18 0.12,0.27 0.2,0.39 0.32,-0.06 0.58,-0.22 0.95,-0.23l0.03 0.69 -0.54 0.15c0.04,0.16 1.12,1.69 1.31,1.82 0.19,-0.11 0.35,-0.45 0.47,-0.64 0.32,-0.48 1.19,-1.65 1.33,-2.08 -0.61,0.03 -1.57,0.48 -2.21,0.6 -0.01,-0.83 -0.15,-0.65 0.76,-0.9l1.68 -0.48c0.4,-0.1 0.44,-0.2 0.57,-0.51 -0.44,-0.02 -2.53,0.81 -2.99,0.75 -0.03,-0.24 -0.01,-1.62 0.06,-1.74 0.09,-0.13 0.03,-0.1 0.26,-0.16 0.11,-0.03 0.2,-0.05 0.32,-0.08l1.87 -0.53c0.28,-0.08 1.66,-0.42 1.8,-0.61 0.07,-0.1 0.23,-0.43 0.27,-0.55l-2.99 0.83 0.01 -0.93c0.61,-0.1 1.41,-0.39 2.01,-0.55 0.33,-0.09 0.64,-0.18 0.98,-0.28 0.44,-0.12 0.64,-0.1 0.69,-0.62 -0.79,0.16 -3.15,0.95 -3.66,0.99l-0.02 -1.79c0.01,-0.08 0.04,-0.45 0.1,-0.51 0.09,-0.1 3.72,-1.11 4.34,-1.28 0.52,-0.14 0.43,0.03 0.83,-1.07 0.31,-0.85 0.64,-2 0.81,-2.95 0.11,-0.57 0.51,-3.06 0.26,-3.48 -0.04,-0.03 -0.68,-0.04 -0.76,0.48 -0.19,1.23 -0.05,1.81 -0.76,3.14 -2.02,3.79 -7.24,4.58 -10.28,1.31 -2.83,-3.04 -2.02,-8.22 2.32,-10.07 2.48,-1.06 4.28,-0.09 4.55,-0.22 0.61,-0.67 -0.05,-0.8 -0.6,-0.95 -3.65,-1.03 -7.78,0.58 -9.23,4.17 -0.89,2.22 -0.57,4.54 -0.01,6.89 0.25,1.06 0.58,2.04 0.94,3.01 0.17,0.47 0.39,0.97 0.58,1.43 0.2,0.46 0.45,0.94 0.63,1.37z"/>
    <path class="fil0" d="M11.26 5.05c0.03,0.05 0.02,0.02 0.06,0.05 0.07,0.06 0.12,0.12 0.17,0.2 0.06,0.12 0.08,0.28 0.04,0.42 -0.09,0.38 -0.4,0.42 -0.46,0.49l0.39 1.18c0.12,0.36 0.31,0.86 0.32,1.27 0.03,0.83 -0.56,1.58 -1.33,1.83 -0.29,0.1 -1.15,0.1 -1.48,0.05 -0.48,-0.06 -0.78,-0.32 -0.97,-0.62 -0.4,-0.66 -0.07,-1.53 0.64,-1.79 0.1,-0.04 0.22,-0.05 0.31,-0.08 -0.01,-0.06 -0.14,-0.27 -0.18,-0.34 -0.11,-0.19 -0.09,-0.2 -0.36,-0.19 -0.36,0 -0.72,0.01 -1.07,0.01 -0.56,0 -0.86,0.02 -1.24,-0.36 -0.39,-0.39 0.1,-0.31 -0.98,-0.31 -0.22,0 -0.51,-0.04 -0.64,0.09 -0.14,0.14 -0.12,0.4 0.01,0.54 0.09,0.1 0.29,0.23 0.42,0.32 -0.03,0.02 -0.39,0.16 -0.47,0.19 -0.79,0.39 -1.29,0.98 -1.65,1.76 -0.09,0.2 -0.33,0.82 -0.32,1.06 1.03,-0.01 2.08,-0 3.11,-0 0.52,-0 1.02,0.08 1.32,-0.23 0.79,-0.83 -0.5,-2.42 -2.11,-1.79 -0.53,0.21 -0.97,0.63 -1.21,1.12 -0.1,0.19 -0.15,0.36 -0.21,0.58l-0.31 0c0.03,-0.36 0.37,-0.94 0.53,-1.17 0.12,-0.17 0.27,-0.3 0.42,-0.43 0.49,-0.41 1.27,-0.66 1.95,-0.53 0.9,0.18 1.66,0.99 1.45,1.9 -0.1,0.43 -0.42,0.75 -0.86,0.84 -0.41,0.08 -1.21,0.04 -1.66,0.04 -0.57,0 -1.15,-0.01 -1.72,-0 0,0.51 0.15,0.93 0.45,1.29l0.23 0.22c0.04,0.03 0.05,0.02 0.07,0.07 -0.53,-0.01 0.12,1.42 -0.14,1.52 0.72,0.14 6.76,-1.17 7.79,-1.17 0.44,0 1.09,0.08 1.3,-0.01l-1.54 0.37c0.09,-0.11 1.07,-0.09 1.36,-0.84 0.19,-0.5 -0.59,1.23 -0.87,0.87 -0.58,0.01 2.06,-2.85 1.63,-2.62 -0.28,0.15 -0.46,0.29 -0.67,0.45 -0.08,0.06 -0.53,0.51 -0.55,0.58 -0.02,0.11 0.31,0.59 0.47,0.72l0.23 0.18c0,0 0.01,0.01 0.01,0.01 -1.18,-0.01 -2.96,0.85 -4.15,0.84 -1.05,-0.01 -2.35,0.43 -3.41,0.47 -0.07,0 0.5,-1.39 0.44,-1.39 0.31,-0.27 0.64,-0.54 0.71,-1.04l-0.8 0.01c-0.59,1 -1.73,0.41 -1.73,-0.28 0.72,-0.01 0.37,-0.04 0.62,0.2 0.06,0.06 0.15,0.1 0.26,0.11 0.27,0.01 0.34,-0.16 0.41,-0.31 0.43,-0.01 0.84,-0.02 1.27,-0.05 0.82,-0.06 1.78,-0.04 2.61,-0.04 0.42,0 0.93,0.03 1.34,-0.01 0.39,-0.04 0.68,-0.25 0.89,-0.42 0.32,-0.26 0.71,-1.12 0.96,-1.37 0.19,-0.18 0.32,-0.31 0.56,-0.45 0.16,-0.09 0.32,-0.13 0.47,-0.2 0.01,-0.37 -0.15,-0.56 -0.31,-0.8l-0.91 -1.34c-0.06,-0.09 -0.44,-0.62 -0.45,-0.67 0.15,0.01 0.3,0.01 0.45,0.01 0.17,0 0.3,0.03 0.34,-0.12 0.05,-0.16 0.13,-1.11 -0.1,-1.18 -0.09,-0.03 -0.32,0.01 -0.42,0.04 -0.16,0.04 -0.59,0.17 -0.68,0.26z"/>
    <path class="fil0" d="M6.11 5.95c-0.01,0.19 -0.18,0.48 0.11,0.9 0.23,0.32 0.48,0.33 0.8,0.34 0.37,0 0.75,-0.01 1.12,-0.01 0.35,-0 0.82,-0.04 1.16,-0.01l0.48 2.36c0.08,-0.01 0.62,-0.25 0.67,-0.28 0.02,-0.15 -0.02,-0.52 -0.03,-0.69 -0.01,-0.23 -0.02,-0.46 -0.03,-0.69 -0.02,-0.36 -0,-1.05 -0.15,-1.32 -0.18,-0.32 -0.69,-0.31 -1.12,-0.35 -0.44,-0.04 -0.9,-0.1 -1.34,-0.13l0.27 -0.7c0.03,-0.09 0.04,-0.08 -0.01,-0.15 -0.09,-0.13 -0.21,-0.35 -0.29,-0.45 -0.06,0.01 -1.12,0.61 -1.3,0.72 -0.15,0.09 -0.41,-0.03 -0.59,-0.05l0.75 -1.89 0.31 0.07c-0.01,0.11 -0.25,0.67 -0.31,0.81 -0.1,0.24 -0.25,0.55 -0.33,0.79 0.11,-0.03 1.37,-0.77 1.55,-0.84 0.08,0.08 0.42,0.64 0.51,0.78 0.22,0.35 0.27,0.55 0.8,0.55l1.15 -0.01c0.03,-0.12 0.01,-0.19 0.06,-0.31 0.04,-0.1 0.09,-0.16 0.13,-0.25 -0.4,-0.05 -0.86,-0.12 -1.26,-0.19 -0.11,-0.02 -0.08,-0.03 -0.16,-0.21 -0.04,-0.09 -0.07,-0.17 -0.11,-0.25 -0.08,-0.17 -0.15,-0.35 -0.22,-0.52 -0.2,-0.46 -0.4,-1.23 -1.12,-1.02 -0.1,0.03 -0.18,0.07 -0.25,0.12 -0.08,0.05 -0.13,0.13 -0.21,0.17l-0.36 -0.1c0.05,-0.51 -0.31,-0.52 -0.76,-0.68 -0.19,-0.07 -0.36,-0.13 -0.55,-0.2 -0.37,-0.13 -0.83,-0.39 -1.11,-0.08 -0.1,0.11 -0.6,1.39 -0.66,1.57 -0.64,1.69 -0.96,1.44 1.28,2.23 0.75,0.27 0.54,-0.16 0.83,-0.08 0.1,0.03 0.2,0.05 0.3,0.08z"/>
    <path class="fil0" d="M12.62 12.57c0.2,-0.22 0.89,-0.93 1.14,-1.1 0.81,-0.53 -0.43,-1.07 0.64,-1.1 -0.02,-0.53 0.95,-0.88 0.09,-1.19 -0.53,-0.19 -1.04,-0.1 -1.48,0.14 -1.48,0.82 -1.54,2.14 -0.4,3.25z"/>
    <path class="fil0" d="M7.73 2.32c0.81,0.02 1.03,0.5 1.2,0.65 0.09,0.08 0.25,0.18 0.43,0.19 0.39,0.04 0.66,-0.22 0.8,-0.44 0.21,-0.35 0.18,-0.63 0.18,-1.08 -0.19,-0.01 -1.06,0.14 -1.18,0.21 -0.03,0.15 0.01,0.39 0.01,0.55 -0.25,-0.08 -0.52,-0.33 -0.37,-0.68 0.12,-0.28 0.44,-0.31 0.77,-0.36 0.33,-0.04 0.66,-0.08 1,-0.13 0.38,-0.05 0.68,-0.05 0.77,-0.35l-1.07 -0.01c-0.2,-0.24 -0.32,-0.45 -0.74,-0.6 -0.73,-0.27 -1.53,0.13 -1.77,0.81 -0.13,0.37 -0.09,0.81 -0.03,1.22z"/>
    <path class="fil0" d="M3.67 13.45l0.13 0.03c1.16,0.07 2.85,0.17 3.91,0.17 0.66,-0 1.38,-0.04 2.03,-0.07 0.68,-0.03 1.35,-0.08 2.02,-0.11 -0.01,-0.01 0,-0 -0.04,-0.02l-0.44 -0.02c-0.16,-0 -0.33,-0 -0.5,-0.01l-3.06 -0.02c-1.35,0 -2.71,-0 -4.06,0.04z"/>
    <path class="fil0" d="M9.83 9.81l0.11 0.51c0.14,-0.01 0.7,-0.28 0.81,-0.35 0.19,-0.12 0.48,-0.4 0.52,-0.62 -0.1,-0 -0.25,0.08 -0.36,0.12 -0.18,0.06 -0.26,0.03 -0.41,0.06 -0.05,0.01 -0.26,0.12 -0.33,0.15 -0.11,0.05 -0.23,0.09 -0.35,0.13z"/>
    <path class="fil1" d="M4.49 2.57c0.14,0.09 1.42,0.53 1.64,0.59l0.11 -0.23c-0.22,-0.06 -1.53,-0.57 -1.64,-0.58l-0.1 0.21z"/>
    <path class="fil0" d="M10.85 5.24c-0.43,0.11 -0.29,0.76 0.14,0.66 0.43,-0.1 0.28,-0.76 -0.14,-0.66z"/>
    <path class="fil1" d="M12.26 5.84c0.04,-0.05 0.04,-0.13 0.04,-0.19 0.01,-0.08 0.01,-0.16 0.01,-0.24 0,-0.13 -0.01,-0.33 -0.05,-0.44 -0.07,0.08 -0.12,0.29 -0.12,0.42 -0,0.19 0.04,0.3 0.11,0.45z"/>
  </g>
</svg>
